<svg xmlns="http://www.w3.org/2000/svg" xmlns:xlink="http://www.w3.org/1999/xlink" width="500" zoomAndPan="magnify" viewBox="0 0 375 374.999991" height="500" preserveAspectRatio="xMidYMid meet" version="1.0"><defs><g/><clipPath id="330888d55d"><path d="M 23.140625 58 L 351 58 L 351 257 L 23.140625 257 Z M 23.140625 58 " clip-rule="nonzero"/></clipPath></defs><rect x="-37.5" width="450" fill="#ffffff" y="-37.499999" height="449.999989" fill-opacity="1"/><rect x="-37.5" width="450" fill="#ffffff" y="-37.499999" height="449.999989" fill-opacity="1"/><g clip-path="url(#330888d55d)"><path fill="#0b1e45" d="M 301.523438 59.789062 C 301.523438 59.003906 282.800781 64 282.597656 64.078125 C 272.417969 67.945312 262.175781 71.703125 252.238281 76.160156 C 242.800781 80.394531 233.570312 85.101562 224.242188 89.578125 C 212.34375 95.289062 198.628906 98.308594 187.726562 105.804688 C 180.402344 110.832031 177.570312 105.949219 170.851562 102.871094 C 167.855469 101.5 164.765625 100.25 161.867188 98.691406 C 155.605469 95.3125 153.316406 89.5625 149.011719 84.320312 C 143.972656 78.179688 136.125 77.667969 128.8125 76.511719 C 119.628906 75.054688 111.636719 72.625 102.765625 69.898438 C 92.28125 66.675781 80.070312 67.265625 69.421875 69.398438 C 60.246094 71.234375 50.546875 72.902344 43.582031 78.101562 C 39.640625 81.042969 35.238281 83.117188 30.398438 84.035156 C 27.894531 84.695312 23.140625 84.328125 23.140625 88.09375 C 23.140625 90.761719 25.648438 94.148438 26.777344 96.421875 C 29.769531 102.457031 31 108.320312 31.1875 115.027344 C 31.601562 129.996094 36.253906 143.632812 38.769531 158.246094 C 41.144531 172.070312 45.527344 185.089844 49.960938 198.363281 C 55.003906 213.445312 55.929688 228.066406 56.308594 243.722656 C 62.09375 240.796875 68.195312 238.683594 74.246094 236.402344 C 77.550781 235.148438 80.996094 233.292969 84.644531 233.925781 C 90.117188 234.890625 93.144531 232.363281 98.140625 231.050781 C 108.304688 228.378906 120.402344 232.246094 130.101562 235.203125 C 140.316406 238.304688 150.800781 239.386719 159.757812 245.539062 C 161.90625 247.007812 177.046875 257.578125 178.152344 256.976562 C 180.378906 255.765625 183.476562 255.160156 186.035156 254.5625 C 191.855469 253.210938 196.914062 251.917969 202.605469 249.972656 C 206.96875 248.476562 213.035156 247.308594 217.757812 247.773438 C 228.351562 248.8125 239.070312 247.207031 249.582031 246.375 C 257.398438 245.769531 264.589844 246.472656 272.515625 245.417969 C 281.535156 244.210938 289.648438 236.925781 299.148438 240.035156 C 301.90625 240.929688 305.457031 244.820312 307.820312 246.578125 C 313.378906 238.46875 312.585938 230.925781 313.628906 221.546875 C 314.636719 212.503906 315.59375 205.015625 313.742188 196.039062 C 310.425781 179.988281 309.980469 165.246094 314.136719 149.238281 C 317.371094 136.789062 323.082031 126.214844 325.207031 113.28125 C 328.171875 95.199219 333.117188 78.5 350.324219 69.304688 C 336.144531 62.042969 317.390625 56.492188 301.523438 59.789062 M 188.730469 108.910156 C 199.203125 101.386719 212.621094 98.632812 224.1875 93.074219 C 232.972656 88.859375 241.707031 84.515625 250.53125 80.382812 C 266.277344 73.046875 283.113281 65.785156 300.34375 63.128906 C 307.445312 62.039062 314.429688 62.25 321.589844 62.527344 C 328.742188 62.804688 337.820312 67.652344 343.648438 69.785156 C 328.699219 79.9375 324.71875 96.863281 321.957031 113.726562 C 319.945312 125.960938 314.355469 135.925781 311.292969 147.726562 C 307.226562 163.367188 306.621094 178.160156 310.113281 194 C 311.539062 200.433594 312.707031 206.546875 311.925781 213.203125 C 310.949219 221.46875 312.085938 235.128906 306.996094 242.167969 C 293.953125 231.464844 285.039062 240.597656 270.679688 242.511719 C 263.128906 243.511719 256.261719 242.808594 248.734375 243.316406 C 238.90625 243.390625 229.136719 245.730469 219.234375 244.78125 C 207.640625 243.671875 196.984375 249.324219 185.90625 251.402344 C 183.933594 251.769531 182.132812 252.113281 180.433594 253.203125 C 177.703125 254.949219 164.539062 245.019531 161.515625 242.941406 C 152.574219 236.804688 142.695312 235.761719 132.582031 232.679688 C 123.570312 229.925781 115.296875 227.921875 105.753906 227.625 C 100.324219 227.273438 96.867188 228.394531 91.90625 230.34375 C 87.941406 231.894531 84.003906 230.089844 79.960938 231.039062 C 72.984375 232.675781 65.828125 236.042969 59.316406 238.890625 C 58.984375 224.566406 57.542969 211.15625 52.945312 197.414062 C 48.761719 184.902344 44.359375 172.59375 42.160156 159.546875 C 40.695312 150.851562 38.5 142.667969 36.328125 134.132812 C 33.8125 124.230469 35.589844 113.945312 33.140625 104.113281 C 32.503906 101.554688 24.957031 88.121094 27.710938 87.5625 C 35.359375 86.003906 41.625 83.929688 47.773438 78.777344 C 49.496094 77.335938 54.070312 76.234375 56.179688 76.589844 C 58.257812 76.941406 61.128906 74.609375 64.078125 73.855469 C 74.179688 71.265625 84.246094 70.421875 94.632812 71.417969 C 104.171875 72.335938 112.792969 77.226562 122.339844 78.683594 C 125.726562 79.199219 129.101562 79.789062 132.488281 80.300781 C 136.007812 80.832031 139.742188 81.234375 142.894531 83.035156 C 147.6875 85.773438 149.726562 91.542969 153.089844 95.632812 C 157.53125 101.035156 163.996094 102.734375 169.902344 105.875 C 176.734375 109.503906 181.203125 114.28125 188.730469 108.910156 " fill-opacity="1" fill-rule="nonzero"/></g><path fill="#0b1e45" d="M 180.605469 111.183594 C 178.628906 120.171875 178.550781 130.738281 178.214844 140 C 177.6875 154.5 176.148438 169.40625 177.003906 183.820312 C 177.75 196.394531 177.75 208.730469 177.191406 221.316406 C 176.671875 232.933594 177.574219 244.34375 177.808594 255.953125 C 182.851562 257.289062 180.6875 249.089844 180.53125 245.929688 C 180.167969 238.496094 179.527344 231.070312 180.214844 223.636719 C 180.921875 211.25 181.042969 199.046875 180.300781 186.65625 C 179.378906 171.230469 181.382812 155.90625 181.34375 140.433594 C 181.316406 130.890625 181.839844 119.429688 184.007812 110.222656 C 182.226562 109.261719 180.835938 109.210938 180.605469 111.183594 " fill-opacity="1" fill-rule="nonzero"/><path fill="#0b1e45" d="M 278.367188 95.066406 C 272.304688 97.328125 265.863281 99.175781 259.585938 100.75 C 254.023438 102.140625 248.746094 103.652344 243.859375 106.675781 C 238.28125 110.125 232.84375 114.273438 226.53125 116.238281 C 225.640625 116.449219 225.054688 116.792969 223.355469 117.378906 C 223.457031 127.53125 223.894531 132.09375 222.941406 142.214844 C 222.410156 147.835938 220.542969 153.890625 221.089844 159.539062 C 222.28125 171.792969 251.710938 159.1875 258.625 157.074219 C 267.433594 154.382812 278.347656 161.277344 279.210938 148.195312 C 279.742188 140.097656 279.949219 131.964844 282.242188 124.109375 C 283.761719 118.890625 285.277344 113.671875 286.832031 108.460938 C 287.539062 106.082031 288.507812 103.652344 288.972656 101.214844 C 291.457031 92.714844 284.574219 92.707031 278.367188 95.066406 M 240.34375 112.539062 C 247.566406 108.0625 254.308594 105.621094 262.46875 103.183594 C 269.199219 101.175781 277.871094 96.875 284.933594 96.445312 C 288.242188 96.246094 283.058594 110.160156 282.492188 112.109375 C 279.597656 122 277.085938 131.5 276.496094 141.867188 C 276.308594 145.089844 276.816406 150.117188 275.074219 152.976562 C 274.042969 154.660156 260.054688 153.390625 257.871094 154.042969 C 250.144531 156.367188 243.015625 158.917969 235.089844 160.679688 C 232.410156 161.277344 225.164062 164.007812 224.324219 160.023438 C 223.648438 156.8125 224.691406 152.980469 225.101562 149.804688 C 225.925781 143.457031 226.554688 137.191406 226.628906 130.78125 C 226.691406 126.410156 224.835938 120.335938 229.121094 118.738281 C 233.152344 117.238281 236.792969 114.925781 240.34375 112.539062 " fill-opacity="1" fill-rule="nonzero"/><path fill="#0b1e45" d="M 206.871094 121.785156 C 204.554688 122.253906 202.378906 123.015625 200.132812 123.71875 C 196.6875 124.808594 189.878906 123.789062 190.71875 128.332031 C 195.695312 128.808594 199.617188 127.03125 204.171875 125.640625 C 207.441406 124.644531 213.886719 125.488281 212.546875 120.789062 C 210.613281 120.847656 208.714844 121.179688 206.871094 121.785156 " fill-opacity="1" fill-rule="nonzero"/><path fill="#0b1e45" d="M 210.085938 131.066406 C 206.316406 132.25 203.300781 133.015625 199.390625 133.644531 C 196.628906 135.027344 187.816406 133.921875 190.820312 138.90625 C 198.597656 136.683594 206.253906 135.636719 213.957031 133.117188 C 213.785156 130.414062 212.363281 129.5625 210.085938 131.066406 " fill-opacity="1" fill-rule="nonzero"/><path fill="#0b1e45" d="M 203.21875 144.136719 C 198.835938 145.328125 194.4375 146.53125 190.253906 148.335938 C 191.039062 153.769531 200.777344 148.148438 204.378906 147.054688 C 207.574219 146.09375 210.765625 145.128906 213.960938 144.167969 C 213.707031 138.726562 206.375 143.183594 203.21875 144.136719 " fill-opacity="1" fill-rule="nonzero"/><path fill="#0b1e45" d="M 211.640625 154.335938 C 203.410156 156.4375 195.351562 159 187.253906 161.558594 C 187.492188 167.371094 198.128906 161.398438 201.503906 160.332031 C 205.046875 159.214844 214.527344 158.96875 213.683594 153.976562 C 212.996094 154.09375 212.320312 154.214844 211.640625 154.335938 " fill-opacity="1" fill-rule="nonzero"/><path fill="#0b1e45" d="M 207.824219 167.671875 C 202.777344 169.042969 197.8125 170.394531 192.902344 172.222656 C 190.183594 173.203125 186.613281 173.355469 189.164062 176.902344 C 192.601562 175.660156 196.023438 174.332031 199.488281 173.183594 C 202.796875 172.09375 210 171.519531 212.703125 169.058594 C 211.363281 166.226562 210.144531 167.257812 207.824219 167.671875 " fill-opacity="1" fill-rule="nonzero"/><path fill="#0b1e45" d="M 281.183594 167.078125 C 269.546875 170.777344 257.007812 168.617188 245.445312 173.089844 C 241.605469 174.582031 238.054688 174.519531 234.042969 175.085938 C 229.109375 175.316406 224.652344 177.992188 219.9375 179.242188 C 212.867188 181.105469 205.515625 181.9375 199.089844 185.558594 C 200.230469 190.304688 206.707031 185.410156 210.414062 184.730469 C 213.953125 184.082031 217.394531 183.144531 220.859375 182.21875 C 225.558594 180.96875 229.96875 178.378906 234.886719 178.183594 C 240.816406 177.949219 245.429688 176.398438 250.878906 174.445312 C 258.308594 171.789062 267.308594 172.148438 275.191406 171.402344 C 281.640625 170.796875 287.25 169.417969 293.742188 169.296875 C 294.269531 163.523438 284.296875 166.316406 281.183594 167.078125 " fill-opacity="1" fill-rule="nonzero"/><path fill="#0b1e45" d="M 209.421875 196.582031 C 204.980469 196.828125 200.738281 198.207031 196.71875 200.066406 C 197.542969 205.179688 205.660156 199.925781 209.601562 199.707031 C 212.640625 199.292969 217.777344 200.269531 216.09375 195.75 C 213.871094 196.027344 211.648438 196.300781 209.421875 196.582031 " fill-opacity="1" fill-rule="nonzero"/><path fill="#0b1e45" d="M 213.886719 206.070312 C 209.582031 206.914062 191.246094 206.890625 195.328125 212.859375 C 200.378906 211.144531 205.050781 210.507812 210.25 209.835938 C 213.394531 209.65625 219.144531 209.699219 217.480469 205.40625 C 216.371094 205.617188 214.914062 205.621094 213.886719 206.070312 " fill-opacity="1" fill-rule="nonzero"/><path fill="#0b1e45" d="M 213.90625 218.285156 C 206.972656 219.933594 201.433594 220.183594 194.53125 222.753906 C 195.070312 228.363281 203.300781 222.210938 207.28125 222.507812 C 210.558594 222.75 217.574219 222.140625 216.722656 217.875 C 215.835938 218.007812 214.734375 217.949219 213.90625 218.285156 M 205.570312 219.902344 L 205.929688 220.882812 C 205.929688 220.882812 205.730469 220.34375 205.570312 219.902344 Z M 205.570312 219.902344 " fill-opacity="1" fill-rule="nonzero"/><path fill="#0b1e45" d="M 212.609375 230.765625 C 206.5625 232.019531 200.566406 232.605469 194.390625 232.421875 C 192.644531 238.101562 201.925781 235.460938 205.070312 235.117188 C 208.023438 234.792969 214.679688 234.800781 216.671875 232.46875 C 215.667969 230.828125 214.316406 230.15625 212.609375 230.765625 " fill-opacity="1" fill-rule="nonzero"/><path fill="#0b1e45" d="M 253.5625 188.042969 C 247.859375 190.0625 241.082031 189.757812 235.101562 190.285156 C 234.039062 196.699219 253.140625 190.71875 257.367188 191.015625 C 258.253906 187.835938 256.316406 187.21875 253.5625 188.042969 " fill-opacity="1" fill-rule="nonzero"/><path fill="#0b1e45" d="M 250.617188 199.664062 C 245.851562 200.804688 241.089844 200.773438 236.421875 202.457031 C 236.753906 207.257812 244.109375 203.828125 247.757812 203.34375 C 251.09375 202.90625 256.773438 203.496094 256.707031 199.28125 C 254.648438 198.875 252.617188 199 250.617188 199.664062 " fill-opacity="1" fill-rule="nonzero"/><path fill="#0b1e45" d="M 247.640625 212.703125 C 244.316406 213.195312 231.054688 215.621094 235.15625 220.492188 C 240.085938 218.160156 244.738281 216.289062 250.148438 215.496094 C 253.214844 215.050781 258.886719 216.832031 257.226562 211.972656 C 254.03125 212.097656 250.792969 212.113281 247.640625 212.703125 " fill-opacity="1" fill-rule="nonzero"/><path fill="#0b1e45" d="M 250.011719 225.113281 C 245.921875 226.25 233.109375 224.1875 234.472656 229.484375 C 238.285156 229.539062 253.042969 230.675781 256.023438 226.527344 C 254.242188 224.59375 252.597656 223.964844 250.011719 225.113281 " fill-opacity="1" fill-rule="nonzero"/><path fill="#0b1e45" d="M 274.066406 186.605469 C 279.449219 187.8125 291.992188 191.355469 296.550781 186.1875 C 294.632812 183.71875 289.925781 185.332031 287.203125 185.554688 C 283.382812 185.859375 273.761719 180.765625 274.066406 186.605469 " fill-opacity="1" fill-rule="nonzero"/><path fill="#0b1e45" d="M 275.851562 198.085938 C 278.851562 198.226562 281.886719 198.515625 284.886719 198.519531 C 288.386719 199 298.96875 199.214844 297.484375 194.324219 C 290.089844 194.484375 283.289062 195.324219 275.847656 194.953125 C 275.851562 195.910156 275.582031 197.171875 275.851562 198.085938 " fill-opacity="1" fill-rule="nonzero"/><path fill="#0b1e45" d="M 287.332031 207.382812 C 285.101562 208.011719 282.714844 208.324219 280.398438 208.453125 C 277.359375 208.621094 274.300781 206.363281 273.539062 210.382812 C 278.320312 212.84375 292.90625 211.898438 295.660156 207.289062 C 293.492188 205.28125 289.699219 206.691406 287.332031 207.382812 " fill-opacity="1" fill-rule="nonzero"/><path fill="#0b1e45" d="M 289.671875 218.265625 C 286.324219 218.882812 283 219.570312 279.671875 220.242188 C 276.644531 220.851562 271.214844 220.414062 273.484375 224.753906 C 278 223.789062 282.519531 222.859375 287.046875 221.949219 C 290.339844 221.285156 297.460938 222.25 296 217.429688 C 293.886719 217.710938 291.777344 217.988281 289.671875 218.265625 " fill-opacity="1" fill-rule="nonzero"/><path fill="#0b1e45" d="M 297.910156 91.679688 C 296.324219 92.410156 296.785156 93.730469 298 95.117188 C 301.433594 92.878906 304.695312 94.003906 308.445312 94.542969 C 311.488281 94.984375 317.367188 96.398438 315.910156 91.6875 C 310.367188 91.816406 302.910156 89.132812 297.910156 91.679688 " fill-opacity="1" fill-rule="nonzero"/><path fill="#0b1e45" d="M 310.691406 74 C 307.320312 74 300.988281 77.496094 298.042969 79.226562 C 295.308594 71.347656 281.960938 84.75 281.003906 81.816406 C 278.265625 73.5 265.371094 86.902344 261.644531 89.441406 C 258.0625 91.890625 258.203125 90.394531 256.253906 87.914062 C 253.542969 84.460938 248.347656 90.085938 246.6875 91.800781 C 244.085938 94.496094 241.300781 97.046875 238.523438 99.550781 C 238.695312 99.425781 237.351562 97.710938 237.476562 97.882812 C 234.957031 94.464844 232.554688 97.214844 230.199219 98.894531 C 228.027344 100.976562 223.5625 102.730469 221.851562 105.1875 C 216.695312 98.9375 213.050781 106.804688 209.066406 109.792969 C 204.121094 105.082031 199.367188 110.269531 197.03125 114.0625 C 200.605469 117.738281 203.300781 107.390625 206.375 112 C 206.601562 112.375 207.058594 112.832031 207.398438 113.074219 C 208.015625 113.820312 208.179688 114.152344 208.90625 113.773438 C 211.835938 111.933594 213.972656 108.148438 216.953125 106.21875 C 219.554688 104.535156 220.128906 110.613281 223.367188 107.929688 C 225.703125 105.996094 228.464844 104.726562 230.722656 102.703125 C 232.886719 100.757812 233.464844 100.078125 235.375 100.25 C 237.644531 104.335938 239.800781 101.894531 242.363281 100.101562 C 246.441406 97.253906 249.355469 91.8125 253.96875 89.90625 C 253.914062 89.980469 254.488281 91.269531 254.574219 91.28125 C 256.378906 94.777344 260.003906 94.226562 262.878906 92.390625 C 267.609375 89.359375 271.617188 85.015625 276.347656 82.136719 C 278.292969 80.957031 278.4375 84.78125 280.078125 85.570312 C 283.503906 87.214844 286.730469 83.144531 289.367188 81.742188 C 294.773438 78.867188 295.023438 79.664062 296.445312 84.535156 C 297.097656 85.929688 303.492188 80.125 307.121094 78.703125 C 308.808594 78.042969 312.050781 76.136719 313.9375 76.566406 C 316.699219 78.140625 320.707031 81.359375 322.820312 76.964844 C 320.882812 75.226562 313.101562 73.1875 310.691406 74 " fill-opacity="1" fill-rule="nonzero"/><path fill="#0b1e45" d="M 307.792969 106.230469 C 303.71875 106.269531 299.628906 106.257812 295.550781 106.238281 C 294.199219 110.757812 298.929688 109.378906 301.863281 109.371094 C 305.539062 109.367188 311.085938 110.648438 314.320312 108.78125 C 313.71875 106.089844 309.875 106.207031 307.792969 106.230469 " fill-opacity="1" fill-rule="nonzero"/><path fill="#0b1e45" d="M 298.667969 117.390625 C 296.535156 117.53125 294.164062 118.828125 292.292969 119.703125 C 293.027344 124.855469 296.441406 120.542969 299.664062 120.503906 C 303.539062 120.457031 307.203125 121.824219 311.058594 121.820312 C 312.449219 116.859375 302.519531 117.203125 298.667969 117.390625 " fill-opacity="1" fill-rule="nonzero"/><path fill="#0b1e45" d="M 300.628906 131.445312 C 296.773438 131.503906 293.167969 132.375 289.613281 133.851562 C 290.214844 138.992188 295.90625 134.644531 299.484375 134.648438 C 302.308594 134.410156 305.105469 135.296875 306.921875 132.558594 C 305.550781 130.820312 302.449219 131.300781 300.628906 131.445312 " fill-opacity="1" fill-rule="nonzero"/><path fill="#0b1e45" d="M 288.035156 148.316406 C 291.460938 147.960938 294.890625 147.609375 298.316406 147.261719 C 299.136719 141.945312 286.191406 143.28125 288.035156 148.316406 " fill-opacity="1" fill-rule="nonzero"/><path fill="#0b1e45" d="M 253.035156 121.894531 C 247.109375 123.328125 244.042969 128.507812 244.503906 134.414062 C 245.105469 142.046875 241.308594 141.71875 235.0625 144.445312 C 230.132812 146.191406 228.152344 150.28125 224.660156 153.664062 C 222.316406 155.929688 220.113281 164.347656 225.597656 163.15625 C 225.601562 157.148438 228.5625 151.503906 234.109375 148.308594 C 241.746094 143.90625 248.324219 144.933594 247.644531 134.125 C 247.375 129.816406 249.328125 126.007812 253.765625 124.933594 C 257.945312 123.925781 257.628906 130.835938 258.015625 133.003906 C 258.988281 138.445312 263.28125 136.9375 267.1875 137.550781 C 270.546875 138.074219 276.28125 143.53125 279.304688 141.742188 C 277.722656 135.214844 267.109375 135.179688 262.40625 134.324219 C 257.898438 133.511719 263.40625 119.386719 253.035156 121.894531 " fill-opacity="1" fill-rule="nonzero"/><path fill="#0b1e45" d="M 156.042969 130.214844 C 161.90625 130.285156 162.683594 132.296875 166.605469 135.414062 C 169.023438 137.332031 173.3125 141.902344 175.246094 137.164062 C 167.699219 134 165.273438 127.171875 156.203125 127.085938 C 156.152344 128.058594 155.84375 129.265625 156.042969 130.214844 " fill-opacity="1" fill-rule="nonzero"/><path fill="#0b1e45" d="M 157.464844 140.988281 C 155.5625 140.890625 155.375 142.269531 155.945312 144.15625 C 161.011719 143.796875 162.378906 145.296875 166.234375 147.746094 C 168.8125 149.386719 171.953125 152.285156 173.789062 148.503906 C 168.605469 145.285156 163.777344 140.789062 157.464844 140.988281 " fill-opacity="1" fill-rule="nonzero"/><path fill="#0b1e45" d="M 155.777344 153.582031 C 151.898438 157.238281 162.105469 157.472656 164.738281 158.691406 C 167.53125 159.988281 171.066406 163.191406 173.148438 159.449219 C 167.910156 156.378906 161.921875 153.171875 155.777344 153.582031 " fill-opacity="1" fill-rule="nonzero"/><path fill="#0b1e45" d="M 154.355469 166.589844 C 158.269531 169.375 164.542969 169.023438 167.898438 172.015625 C 170.019531 173.910156 169.484375 177.953125 173.339844 175.414062 C 172.148438 172.484375 170.574219 169.089844 167.242188 168.207031 C 163.410156 167.195312 155.832031 162.464844 154.355469 166.589844 " fill-opacity="1" fill-rule="nonzero"/><path fill="#0b1e45" d="M 153.417969 182.484375 C 158.082031 183.578125 162.375 185.476562 166.851562 187.109375 C 169.496094 188.082031 170.824219 191.554688 173.515625 192.179688 C 177.546875 185.070312 157.582031 180.242188 154.132812 179.433594 C 153.910156 180.382812 153.378906 181.53125 153.417969 182.484375 " fill-opacity="1" fill-rule="nonzero"/><path fill="#0b1e45" d="M 152.648438 194.707031 C 156.050781 194.988281 158.960938 195.496094 162.101562 196.800781 C 164.761719 197.90625 166.929688 200.128906 168.667969 196.683594 C 166.007812 194.152344 151.507812 187.851562 152.648438 194.707031 " fill-opacity="1" fill-rule="nonzero"/><path fill="#0b1e45" d="M 155.207031 203.992188 C 153.417969 204.140625 153.417969 205.535156 154.148438 207.273438 C 159.9375 206.226562 164.089844 207.960938 168.472656 211.605469 C 173.222656 205.492188 157.902344 203.640625 155.207031 203.992188 " fill-opacity="1" fill-rule="nonzero"/><path fill="#0b1e45" d="M 151.164062 218.605469 C 154.5625 219.632812 158.019531 220.765625 161.269531 222.183594 C 163.78125 223.273438 167.035156 228.796875 168.871094 228.859375 C 168.890625 228.070312 169.46875 225.464844 169.460938 225.933594 C 168.113281 221.429688 151.539062 212.027344 151.164062 218.605469 " fill-opacity="1" fill-rule="nonzero"/><path fill="#0b1e45" d="M 150.757812 230.957031 C 156.628906 233.320312 162.269531 235.746094 167.289062 239.648438 C 171.441406 236.273438 163.988281 233.367188 161.03125 232.039062 C 158.179688 230.75 151.367188 225.714844 150.757812 230.957031 " fill-opacity="1" fill-rule="nonzero"/><path fill="#0b1e45" d="M 113.351562 113.601562 C 111.65625 120.117188 115.445312 126.636719 115.253906 133.1875 C 115.085938 139.136719 113.371094 144.953125 112.90625 150.890625 C 112.203125 159.863281 115.441406 165.152344 124.328125 166.851562 C 130.019531 168.398438 135.90625 171.207031 141.757812 171.730469 C 151.683594 172.628906 148.683594 150.695312 148.738281 144.761719 C 148.820312 135.351562 149.210938 125.929688 149.449219 116.519531 C 149.449219 115.957031 149.367188 115.8125 149.53125 115.226562 C 149.925781 113.511719 149.335938 112.878906 148.742188 112.628906 C 145.066406 111.117188 141.035156 111.582031 136.878906 110.574219 C 130.234375 108.96875 115.863281 103.964844 113.351562 113.601562 M 142.03125 168.617188 C 136.285156 168.101562 130.53125 165.195312 124.910156 163.773438 C 114.511719 161.785156 115.449219 153.539062 116.867188 144.75 C 118.03125 137.53125 118.574219 131.238281 117.210938 124.085938 C 116.441406 120.789062 114.355469 114.140625 118.246094 111.941406 C 122.136719 109.738281 128.175781 111.714844 132.136719 112.652344 C 134.101562 113.121094 136.0625 113.605469 138.027344 114.078125 C 142.746094 115.25 146.367188 114.269531 146.234375 119.464844 C 146.046875 126.824219 145.855469 134.1875 145.667969 141.554688 C 145.558594 145.828125 147.550781 169.109375 142.03125 168.617188 " fill-opacity="1" fill-rule="nonzero"/><path fill="#0b1e45" d="M 59.40625 177.164062 C 61.003906 183.152344 61.25 183.574219 61.984375 189.742188 C 62.738281 194.800781 62.808594 203.203125 70.230469 201.886719 C 78.246094 200.464844 93.226562 204.632812 92.59375 192.449219 C 92.238281 185.511719 96.621094 171.019531 85.582031 172.160156 C 77.230469 173.023438 69.851562 171.238281 61.863281 174.699219 C 60.390625 175.597656 60.292969 175.65625 59.40625 177.164062 M 84.097656 175.527344 C 89.796875 174.660156 90.441406 176.730469 89.6875 181.996094 C 89.539062 185.230469 89.433594 188.429688 89.4375 191.6875 C 89.460938 201.765625 79.5 196.601562 72.410156 198.179688 C 66.414062 199.515625 65.828125 196.984375 65.273438 191.117188 C 64.90625 188.574219 64.632812 186.046875 64.082031 183.523438 C 63.128906 179.199219 61.433594 178.203125 65.75 176.410156 C 71.65625 173.957031 77.976562 176.515625 84.097656 175.527344 " fill-opacity="1" fill-rule="nonzero"/><path fill="#0b1e45" d="M 120.007812 176.917969 C 125.371094 177.15625 131.019531 176.871094 136.132812 178.722656 C 139.1875 179.820312 143.679688 182.933594 145.46875 179.039062 C 143.082031 176.953125 136.617188 175.367188 133.542969 174.757812 C 130.429688 174.136719 118.800781 171.28125 120.007812 176.917969 " fill-opacity="1" fill-rule="nonzero"/><path fill="#0b1e45" d="M 120.820312 188.394531 C 124.640625 189.792969 128.667969 189.683594 132.589844 190.664062 C 136.03125 191.523438 142.46875 195.792969 144.449219 191.472656 C 141.800781 189.144531 134.703125 187.769531 131.324219 187.128906 C 127.695312 186.445312 121.113281 183.265625 120.820312 188.394531 " fill-opacity="1" fill-rule="nonzero"/><path fill="#0b1e45" d="M 120.800781 200.183594 C 128.28125 202.003906 135.957031 202.574219 143.464844 204.183594 C 144.621094 197.4375 124.964844 197.933594 121.492188 197.128906 C 121.277344 198.066406 120.738281 199.234375 120.800781 200.183594 " fill-opacity="1" fill-rule="nonzero"/><path fill="#0b1e45" d="M 120.949219 212.207031 C 124.300781 212.460938 138.296875 217.28125 139.792969 212.925781 C 134.273438 210.640625 127.496094 209.5625 121.179688 209.085938 C 121.113281 210.054688 120.769531 211.261719 120.949219 212.207031 " fill-opacity="1" fill-rule="nonzero"/><path fill="#0b1e45" d="M 100.46875 176.75 C 103.730469 176.859375 111.285156 175.898438 114.042969 177.925781 C 113.777344 177.984375 116.300781 176.945312 116.824219 176.664062 C 115.875 173.585938 109.296875 174.042969 106.628906 173.882812 C 103.707031 173.707031 99.601562 172.316406 100.46875 176.75 " fill-opacity="1" fill-rule="nonzero"/><path fill="#0b1e45" d="M 103.355469 183.117188 C 101.328125 183.117188 101.164062 184.492188 101.914062 186.421875 C 105.839844 185.988281 116.660156 188.371094 118.242188 184.523438 C 115.089844 182.011719 107.074219 183.003906 103.355469 183.117188 " fill-opacity="1" fill-rule="nonzero"/><path fill="#0b1e45" d="M 101.609375 190.914062 C 103.453125 191.917969 115.734375 198.808594 113.523438 191.582031 C 109.457031 191.746094 103.011719 186.222656 101.609375 190.914062 M 110.925781 194.71875 Z M 110.925781 194.71875 " fill-opacity="1" fill-rule="nonzero"/><path fill="#0b1e45" d="M 101.191406 197.054688 C 100.921875 197.972656 101.191406 199.222656 101.195312 200.1875 C 105.941406 200.027344 110.921875 200.050781 115.554688 201.054688 C 115.699219 200.300781 115.417969 198.589844 115.179688 197.957031 C 111.238281 196.367188 105.339844 196.917969 101.191406 197.054688 " fill-opacity="1" fill-rule="nonzero"/><path fill="#0b1e45" d="M 74.636719 206.371094 C 71.78125 205.792969 69.617188 206.332031 70.589844 209.625 C 74.167969 209.53125 86.421875 211.820312 88.628906 209.03125 C 85.277344 205.242188 79.511719 206.164062 74.636719 206.371094 " fill-opacity="1" fill-rule="nonzero"/><path fill="#0b1e45" d="M 71.144531 217.28125 C 74.449219 217.847656 87.257812 218.324219 86.625 213.277344 C 81.414062 213.34375 76.707031 214.882812 71.472656 214.167969 C 71.371094 215.125 70.976562 216.34375 71.144531 217.28125 " fill-opacity="1" fill-rule="nonzero"/><path fill="#0b1e45" d="M 80.394531 221.011719 C 77.449219 221.25 74.777344 222.046875 72.023438 223.082031 C 72.441406 227.960938 80.136719 224.175781 83.996094 223.867188 C 85.316406 223.761719 87.484375 222.132812 85.5625 220.601562 C 84.90625 220.070312 81.320312 220.9375 80.394531 221.011719 " fill-opacity="1" fill-rule="nonzero"/><path fill="#0b1e45" d="M 66.042969 157.621094 C 63.605469 158.46875 61.3125 159.820312 59.316406 161.472656 C 55.640625 164.589844 57.550781 165.8125 60.050781 164.515625 C 62.296875 163.257812 64.382812 161.28125 66.910156 160.625 C 71.453125 159.449219 77.28125 161.3125 81.980469 161.023438 C 86.640625 160.742188 92.304688 161.527344 96.949219 161.828125 C 100.308594 162.050781 104.90625 164.417969 106.96875 160.503906 C 101.625 158.660156 96.4375 159.113281 90.984375 158.9375 C 83.265625 160.242188 73.714844 155.238281 66.042969 157.621094 " fill-opacity="1" fill-rule="nonzero"/><path fill="#0b1e45" d="M 71.671875 92.699219 C 66.765625 93.265625 61.007812 94.453125 56.242188 92.820312 C 53.210938 91.785156 45.867188 91.085938 48.296875 96.035156 C 55.597656 94.109375 63.925781 96.730469 71.667969 95.851562 C 78.667969 95.058594 86.265625 94.71875 93.304688 95.832031 C 101.09375 97.058594 108.632812 95.558594 116.453125 95.890625 C 119.871094 96.03125 123.296875 96.371094 126.710938 96.542969 C 131.089844 96.765625 135.3125 101.914062 139.617188 103.082031 C 141.980469 99.242188 137.328125 98.824219 134.640625 97.191406 C 132.507812 95.652344 128.304688 93.5 127.277344 93.445312 C 119.9375 93.054688 112.816406 93.105469 105.472656 93.242188 C 94.160156 93.449219 82.980469 90.976562 71.671875 92.699219 " fill-opacity="1" fill-rule="nonzero"/><path fill="#0b1e45" d="M 66.324219 118.929688 C 63.03125 119.132812 46.144531 121.953125 52.507812 126.703125 C 55.335938 124.140625 58.566406 123.316406 62.203125 122.664062 C 65.757812 122.027344 71.730469 123.808594 73.527344 120.871094 C 71.65625 118.773438 68.882812 118.78125 66.324219 118.929688 " fill-opacity="1" fill-rule="nonzero"/><path fill="#0b1e45" d="M 70.117188 143.21875 C 67.726562 143.835938 65.28125 144.164062 62.84375 144.578125 C 59.339844 145.167969 52.746094 144.238281 52.964844 148.636719 C 57.554688 149.765625 63.195312 147.542969 67.824219 146.917969 C 71.070312 146.488281 76.71875 146.878906 77.605469 143.578125 C 75.179688 142.0625 72.683594 142.488281 70.117188 143.21875 " fill-opacity="1" fill-rule="nonzero"/><path fill="#0b1e45" d="M 93.222656 104.863281 C 90.140625 105.179688 83.585938 104.195312 85.25 108.878906 C 88.472656 108.492188 92.1875 107.582031 95.398438 108.214844 C 98.132812 108.753906 103.589844 111.445312 106.1875 111.074219 C 106.914062 105.816406 96.777344 104.855469 93.222656 104.863281 " fill-opacity="1" fill-rule="nonzero"/><path fill="#0b1e45" d="M 100.113281 116.355469 C 95.363281 116.960938 90.871094 117.386719 86.0625 117.246094 C 84.574219 122.34375 93.070312 120.554688 96.292969 120.042969 C 100.0625 119.441406 103.351562 119.164062 107.015625 120.367188 C 107.875 116.070312 103.222656 116.035156 100.113281 116.355469 " fill-opacity="1" fill-rule="nonzero"/><path fill="#0b1e45" d="M 85.074219 130.171875 C 85.464844 134.863281 93.011719 132.441406 96.839844 132.734375 C 100.113281 132.976562 104.839844 134.730469 106.628906 131.417969 C 103.339844 128.125 88.863281 128.75 85.074219 130.171875 " fill-opacity="1" fill-rule="nonzero"/><path fill="#0b1e45" d="M 87.882812 145.535156 C 91.335938 146.542969 101.867188 149.308594 105.777344 148.660156 C 106.292969 144.742188 102.007812 144.617188 98.976562 144.160156 C 95.386719 143.621094 87.816406 140.226562 87.882812 145.535156 " fill-opacity="1" fill-rule="nonzero"/><path fill="#0b1e45" d="M 62.636719 79.914062 C 59.210938 81.785156 41.507812 83.117188 48.308594 87.863281 C 53.660156 84.699219 61.5 83.71875 67.542969 81.308594 C 74.414062 78.566406 72.910156 83.742188 77.398438 85.285156 C 81.304688 86.628906 83.707031 80.160156 87.347656 83.175781 C 92.261719 87.292969 97 80.542969 101.273438 84.765625 C 105.878906 89.308594 107.585938 86.085938 112.753906 85.707031 C 115.511719 84.664062 128.535156 90.570312 125.15625 83.644531 C 122.148438 84.21875 120.222656 83.316406 117.328125 83.085938 C 112.222656 81.390625 107.800781 86.167969 104.410156 82.824219 C 100.125 78.585938 92.359375 82.832031 90.835938 81.503906 C 87.65625 78.742188 81.453125 78.515625 78.644531 82.03125 C 74.414062 76.589844 69.542969 76.589844 62.636719 79.914062 " fill-opacity="1" fill-rule="nonzero"/><path fill="#0b1e45" d="M 69.136719 61.925781 C 56.292969 66.925781 41.777344 63.4375 28.914062 68.265625 C 29.339844 73.402344 34.539062 69.484375 37.839844 69.023438 C 44.179688 68.140625 51 67.898438 57.398438 67.40625 C 66.597656 66.695312 74.457031 63.132812 83.769531 63.652344 C 97.292969 64.410156 110.726562 67.3125 123.972656 70.179688 C 130.792969 71.65625 143.410156 71.234375 147.175781 77.949219 C 150.222656 83.382812 151.546875 89.40625 156.359375 93.773438 C 160.554688 97.582031 165.714844 100.738281 170.261719 104.160156 C 172.953125 106.1875 179.15625 113.527344 181.226562 108.363281 C 181.03125 107.949219 180.769531 108.066406 180.445312 108.707031 C 181.164062 107.949219 166.042969 97.058594 163.78125 95.441406 C 152.675781 87.859375 152.292969 72.824219 138.265625 69.632812 C 129.355469 67.601562 120.1875 66.027344 111.199219 64.257812 C 103.472656 62.53125 94.628906 61.128906 86.714844 60.679688 C 80.648438 60.34375 74.976562 59.664062 69.136719 61.925781 " fill-opacity="1" fill-rule="nonzero"/><path fill="#0b1e45" d="M 28.9375 68.515625 C 29.152344 70.054688 29.882812 76.292969 30.878906 77.777344 C 31.230469 78.304688 34.699219 85.148438 34.84375 85.136719 C 39.597656 85.023438 34.957031 77.390625 33.75 76.226562 C 30.5 73.105469 35.921875 71.109375 31.996094 68.523438 C 30.484375 69.789062 30.363281 67.511719 29.765625 69.390625 " fill-opacity="1" fill-rule="nonzero"/><path fill="#0b1e45" d="M 58.777344 53.496094 C 56.851562 54.140625 46.765625 54.234375 45.875 56.238281 C 44.421875 59.519531 39.488281 67.234375 44.585938 67.386719 C 45.78125 63.617188 46.742188 61.710938 48.234375 57.933594 C 58.039062 57.84375 61.125 54.613281 66.648438 54.824219 C 70.410156 54.964844 74.199219 54.859375 77.964844 55.003906 C 83.425781 55.207031 89.46875 54.574219 94.3125 57.402344 C 101.535156 61.625 107.613281 61.429688 115.730469 63.015625 C 121.851562 64.214844 127.488281 67.472656 133.652344 68.832031 C 141.285156 70.289062 151.277344 74.21875 154.378906 82.195312 C 156.320312 87.167969 159.078125 91.046875 162.265625 95.230469 C 163.941406 97.84375 172.167969 110.121094 175.21875 104.929688 C 168.277344 97.839844 160.941406 90.4375 157.292969 81.050781 C 151.808594 66.953125 134.078125 66.933594 122.25 61.988281 C 115.699219 59.515625 107.152344 61.089844 101.246094 57.761719 C 95.644531 54.605469 91.417969 52.175781 84.648438 52.109375 C 76.085938 51.65625 66.988281 50.738281 58.777344 53.496094 " fill-opacity="1" fill-rule="nonzero"/><path fill="#0b1e45" d="M 341.296875 47.25 C 334.742188 47.289062 328.320312 48.800781 321.789062 49.175781 C 313.511719 49.648438 305.433594 48.476562 297.339844 51.09375 C 290.214844 53.394531 283.761719 57.5 276.503906 59.40625 C 267.890625 61.671875 258.636719 61.054688 250.253906 64.277344 C 242.21875 67.371094 237.242188 73.820312 230.554688 78.828125 C 226.386719 81.945312 221.386719 83.632812 216.6875 85.769531 C 208.589844 89.445312 201.078125 93.886719 193.539062 98.625 C 190.683594 100.417969 174.917969 106.867188 181.960938 110.386719 C 194.433594 102.527344 207.070312 93.34375 220.609375 87.433594 C 228.3125 84.070312 234.234375 79.988281 240.511719 74.292969 C 247.207031 68.214844 254.367188 65.847656 263.203125 64.726562 C 272.269531 63.703125 280.3125 61.722656 288.613281 58.054688 C 298.957031 53.332031 307.988281 52.335938 319.164062 52.3125 C 325.359375 52.296875 331.453125 51.035156 337.621094 50.542969 C 341.003906 50.269531 349.742188 49.449219 344.855469 54.800781 C 341.792969 58.15625 338.335938 61.351562 335.886719 65.191406 C 339.339844 69.074219 343.71875 60.683594 346.332031 57.820312 C 351.636719 51.996094 349.457031 47.179688 341.296875 47.25 " fill-opacity="1" fill-rule="nonzero"/><path fill="#0b1e45" d="M 316.234375 40.359375 C 313.664062 41.542969 311.175781 40.984375 308.460938 41.152344 C 304.222656 41.09375 300.15625 42.363281 296.09375 43.402344 C 287.652344 45.558594 280.867188 50.652344 272.511719 52.894531 C 267.371094 54.273438 261.761719 53.585938 256.777344 55.289062 C 252.949219 56.59375 250.101562 59.207031 246.644531 61.109375 C 241.191406 64.847656 233.933594 65.234375 228.808594 69.648438 C 223.703125 74.039062 221.179688 80.292969 215.09375 83.535156 C 211.121094 86.136719 207.121094 88.691406 203.242188 91.46875 C 199.667969 94.019531 195.96875 96.402344 192.320312 98.839844 C 189.683594 100.609375 180.191406 104.175781 184.667969 107.730469 C 192.28125 102.632812 199.976562 97.644531 207.4375 92.3125 C 211.03125 89.738281 214.710938 87.460938 218.511719 85.222656 C 224.792969 81.53125 227.019531 73.601562 233.597656 70.136719 C 237.703125 67.96875 242.367188 66.871094 246.511719 64.796875 C 250.082031 63.015625 252.992188 60.214844 256.714844 58.664062 C 261.800781 56.546875 267.921875 57.351562 273.285156 55.921875 C 282.046875 53.578125 289.257812 48.375 298.109375 46.109375 C 302.167969 45.078125 305.855469 44.507812 310.015625 44.332031 C 310.863281 44.367188 320.050781 41.992188 320.566406 42.320312 C 321.847656 45.554688 316.078125 46.847656 319.6875 51.386719 C 322.175781 50.304688 321.847656 48.746094 322.324219 46.332031 C 325.492188 40.859375 321.625 37.824219 316.234375 40.359375 " fill-opacity="1" fill-rule="nonzero"/><path fill="#0b1e45" d="M 126.707031 136.414062 C 123.632812 137.867188 120.042969 137.226562 116.75 137.085938 C 114.660156 144.25 126.28125 138.214844 128.578125 138.976562 C 128.578125 139.304688 130.714844 139.484375 130.714844 141.183594 C 130.828125 141.519531 128.34375 146.261719 128.253906 146.515625 C 127.34375 148.945312 125.59375 152.207031 126.296875 154.777344 C 127.273438 158.34375 131.753906 158.039062 132.878906 161.945312 C 133.953125 164.757812 132.125 169.253906 136.863281 168.515625 C 136.609375 166.425781 136.667969 163.84375 136.105469 161.816406 C 135.535156 159.769531 134.9375 157.472656 132.992188 156.304688 C 131.40625 155.355469 128.855469 154.820312 129.46875 152.558594 C 130.285156 149.546875 131.820312 146.726562 132.765625 143.8125 C 134.066406 139.796875 132.746094 133.179688 126.707031 136.414062 " fill-opacity="1" fill-rule="nonzero"/><path fill="#0b1e45" d="M 74.113281 179.550781 C 72.28125 183.476562 71.199219 183.394531 68.640625 183.394531 C 64.742188 183.386719 59.496094 192.253906 65.351562 191.894531 C 65.1875 188.375 67.796875 186.917969 70.300781 186.8125 C 74.6875 186.644531 75.035156 183.660156 77.144531 180.640625 C 78.25 183.144531 77.929688 186.480469 81.859375 185.371094 C 82.390625 190.179688 82.863281 195.027344 83.355469 199.855469 C 84.167969 199.480469 84.933594 199.613281 85.492188 198.882812 C 84.886719 198.222656 86.734375 199.738281 86.128906 199.082031 C 88.347656 199.882812 84.269531 197.917969 86.128906 198.589844 C 85.785156 195.214844 86.644531 185.160156 84.375 182.488281 C 83.539062 181.503906 81.496094 182.253906 80.65625 181.511719 C 78.863281 179.925781 77.503906 173.113281 74.113281 179.550781 " fill-opacity="1" fill-rule="nonzero"/><path fill="#0b1e45" d="M 103.765625 204.804688 C 100.910156 204.230469 98.746094 204.765625 99.71875 208.058594 C 103.296875 207.96875 115.550781 210.261719 117.753906 207.464844 C 114.40625 203.675781 108.644531 204.597656 103.765625 204.804688 " fill-opacity="1" fill-rule="nonzero"/><path fill="#0b1e45" d="M 97.925781 214.929688 C 101.234375 215.5 114.042969 215.976562 113.40625 210.925781 C 108.199219 210.996094 103.492188 212.53125 98.253906 211.816406 C 98.15625 212.777344 97.761719 213.996094 97.925781 214.929688 " fill-opacity="1" fill-rule="nonzero"/><path fill="#0b1e45" d="M 108.589844 217.261719 C 105.648438 217.496094 102.976562 218.292969 100.21875 219.328125 C 100.636719 224.210938 108.335938 220.421875 112.191406 220.113281 C 113.511719 220.007812 115.679688 218.378906 113.761719 216.847656 C 113.101562 216.316406 109.515625 217.1875 108.589844 217.261719 " fill-opacity="1" fill-rule="nonzero"/><path fill="#0b1e45" d="M 53.894531 134.832031 C 55.15625 139.363281 62.117188 135.558594 65.925781 135.125 C 69.1875 134.746094 74.160156 135.578125 75.296875 131.988281 C 71.441406 129.375 57.347656 132.722656 53.894531 134.832031 " fill-opacity="1" fill-rule="nonzero"/><path fill="#0b1e45" d="M 64.058594 107.769531 C 59.394531 108.871094 54.972656 109.769531 50.179688 110.140625 C 49.242188 115.359375 57.496094 112.691406 60.648438 111.839844 C 64.332031 110.835938 67.574219 110.21875 71.34375 111.027344 C 71.746094 106.660156 67.117188 107.117188 64.058594 107.769531 " fill-opacity="1" fill-rule="nonzero"/><path fill="#0b1e45" d="M 154.671875 117.882812 C 160.53125 117.957031 161.308594 119.964844 165.234375 123.082031 C 167.652344 125.003906 171.941406 129.570312 173.875 124.839844 C 166.328125 121.675781 163.902344 114.84375 154.828125 114.753906 C 154.785156 115.734375 154.476562 116.9375 154.671875 117.882812 " fill-opacity="1" fill-rule="nonzero"/><path fill="#0b1e45" d="M 121.570312 224.058594 C 127.863281 224.726562 133.949219 225.53125 139.839844 227.921875 C 142.917969 223.542969 134.949219 222.773438 131.746094 222.296875 C 128.65625 221.835938 120.722656 218.84375 121.570312 224.058594 " fill-opacity="1" fill-rule="nonzero"/><g fill="#000000" fill-opacity="0.4"><g transform="translate(37.709196, 334.61693)"><g><path d="M 7.28125 -38.140625 L 2.796875 -38.8125 L 2.796875 -41.609375 L 13.21875 -41.609375 L 31.859375 -14.28125 L 35 -8.34375 L 35 -38.140625 L 30.125 -38.8125 L 30.125 -41.609375 L 43.34375 -41.609375 L 43.34375 -38.8125 L 38.859375 -38.140625 L 38.859375 0 L 34.4375 0 L 15.40625 -27.9375 L 11.09375 -35.34375 L 11.09375 -3.296875 L 16.40625 -2.75 L 16.40625 0 L 2.796875 0 L 2.796875 -2.75 L 7.28125 -3.359375 Z M 7.28125 -38.140625 "/></g></g></g><g fill="#000000" fill-opacity="0.4"><g transform="translate(82.446952, 334.61693)"><g><path d="M 16.296875 0.609375 C 11.773438 0.609375 8.328125 -0.863281 5.953125 -3.8125 C 3.585938 -6.757812 2.40625 -10.695312 2.40625 -15.625 C 2.40625 -18.875 3.019531 -21.726562 4.25 -24.1875 C 5.488281 -26.65625 7.21875 -28.5625 9.4375 -29.90625 C 11.65625 -31.25 14.1875 -31.921875 17.03125 -31.921875 C 20.5 -31.921875 23.191406 -30.957031 25.109375 -29.03125 C 27.035156 -27.113281 28.054688 -24.363281 28.171875 -20.78125 C 28.171875 -18.5 28.039062 -16.757812 27.78125 -15.5625 L 8.515625 -15.5625 C 8.585938 -11.875 9.441406 -8.898438 11.078125 -6.640625 C 12.722656 -4.378906 15.0625 -3.25 18.09375 -3.25 C 19.582031 -3.25 21.140625 -3.519531 22.765625 -4.0625 C 24.390625 -4.601562 25.648438 -5.242188 26.546875 -5.984375 L 27.609375 -3.53125 C 26.523438 -2.40625 24.914062 -1.429688 22.78125 -0.609375 C 20.65625 0.203125 18.492188 0.609375 16.296875 0.609375 Z M 22.015625 -18.53125 C 22.117188 -19.320312 22.171875 -20.125 22.171875 -20.9375 C 22.140625 -23.363281 21.628906 -25.273438 20.640625 -26.671875 C 19.648438 -28.078125 18.085938 -28.78125 15.953125 -28.78125 C 13.796875 -28.78125 12.070312 -27.992188 10.78125 -26.421875 C 9.488281 -24.859375 8.75 -22.226562 8.5625 -18.53125 Z M 22.015625 -18.53125 "/></g></g></g><g fill="#000000" fill-opacity="0.4"><g transform="translate(112.906705, 334.61693)"><g><path d="M -0.390625 -31.078125 L 12.65625 -31.078125 L 12.65625 -28.453125 L 8.40625 -27.78125 L 13.046875 -11.3125 L 14.671875 -4.203125 L 16.296875 -11.375 L 21.671875 -31.078125 L 27.15625 -31.078125 L 32.703125 -11.375 L 34.328125 -4.140625 L 36.125 -11.3125 L 40.65625 -27.71875 L 36.40625 -28.453125 L 36.40625 -31.078125 L 47.765625 -31.078125 L 47.765625 -28.453125 L 44.796875 -27.71875 L 36.125 0.453125 L 30.859375 0.453125 L 24.921875 -19.3125 L 23.46875 -26.265625 L 22.28125 -19.3125 L 16.625 0.453125 L 11.421875 0.453125 L 2.46875 -27.78125 L -0.390625 -28.453125 Z M -0.390625 -31.078125 "/></g></g></g><g fill="#000000" fill-opacity="0.4"><g transform="translate(159.88415, 334.61693)"><g><path d="M 7.734375 -4.484375 C 8.097656 -3.921875 8.882812 -3.414062 10.09375 -2.96875 C 11.3125 -2.519531 12.59375 -2.296875 13.9375 -2.296875 C 16.070312 -2.296875 17.640625 -2.707031 18.640625 -3.53125 C 19.648438 -4.351562 20.15625 -5.488281 20.15625 -6.9375 C 20.15625 -7.945312 19.835938 -8.828125 19.203125 -9.578125 C 18.566406 -10.328125 17.679688 -10.988281 16.546875 -11.5625 C 15.410156 -12.144531 13.773438 -12.84375 11.640625 -13.65625 C 8.773438 -14.738281 6.675781 -16.035156 5.34375 -17.546875 C 4.019531 -19.066406 3.359375 -21.054688 3.359375 -23.515625 C 3.359375 -25.160156 3.851562 -26.597656 4.84375 -27.828125 C 5.832031 -29.066406 7.191406 -30.03125 8.921875 -30.71875 C 10.660156 -31.40625 12.597656 -31.75 14.734375 -31.75 C 16.441406 -31.75 17.941406 -31.617188 19.234375 -31.359375 C 20.523438 -31.097656 21.5625 -30.835938 22.34375 -30.578125 C 23.125 -30.316406 23.644531 -30.148438 23.90625 -30.078125 L 23.90625 -23.125 L 20.5 -23.125 L 19.375 -27.265625 C 19.15625 -27.710938 18.554688 -28.09375 17.578125 -28.40625 C 16.609375 -28.726562 15.53125 -28.890625 14.34375 -28.890625 C 12.65625 -28.890625 11.296875 -28.515625 10.265625 -27.765625 C 9.242188 -27.023438 8.734375 -26.019531 8.734375 -24.75 C 8.734375 -23.632812 9.003906 -22.710938 9.546875 -21.984375 C 10.085938 -21.253906 10.769531 -20.664062 11.59375 -20.21875 C 12.414062 -19.769531 13.535156 -19.242188 14.953125 -18.640625 L 16.078125 -18.203125 C 18.160156 -17.378906 19.851562 -16.59375 21.15625 -15.84375 C 22.46875 -15.101562 23.5625 -14.125 24.4375 -12.90625 C 25.320312 -11.695312 25.765625 -10.210938 25.765625 -8.453125 C 25.765625 -5.691406 24.6875 -3.488281 22.53125 -1.84375 C 20.382812 -0.207031 17.445312 0.609375 13.71875 0.609375 C 11.882812 0.609375 9.96875 0.359375 7.96875 -0.140625 C 5.976562 -0.640625 4.347656 -1.15625 3.078125 -1.6875 L 3.078125 -8.84375 L 6.71875 -8.84375 Z M 7.734375 -4.484375 "/></g></g></g><g fill="#000000" fill-opacity="0.4"><g transform="translate(188.160199, 334.61693)"><g><path d="M 6.4375 -25.09375 L 6.4375 -25.703125 C 6.882812 -26.078125 7.425781 -26.90625 8.0625 -28.1875 C 8.695312 -29.476562 9.238281 -30.972656 9.6875 -32.671875 C 10.132812 -34.367188 10.359375 -36.039062 10.359375 -37.6875 C 10.359375 -38.09375 10.234375 -38.460938 9.984375 -38.796875 C 9.742188 -39.140625 9.347656 -39.59375 8.796875 -40.15625 C 8.117188 -40.789062 7.59375 -41.378906 7.21875 -41.921875 C 6.84375 -42.460938 6.65625 -43.101562 6.65625 -43.84375 C 6.65625 -44.8125 6.925781 -45.578125 7.46875 -46.140625 C 8.007812 -46.703125 8.726562 -46.984375 9.625 -46.984375 C 10.601562 -46.984375 11.519531 -46.628906 12.375 -45.921875 C 13.226562 -45.210938 13.90625 -44.234375 14.40625 -42.984375 C 14.914062 -41.734375 15.171875 -40.320312 15.171875 -38.75 C 15.171875 -36.476562 14.769531 -34.265625 13.96875 -32.109375 C 13.164062 -29.960938 12.203125 -28.125 11.078125 -26.59375 C 9.960938 -25.0625 8.941406 -24.054688 8.015625 -23.578125 Z M 6.4375 -25.09375 "/></g></g></g><g fill="#000000" fill-opacity="0.4"><g transform="translate(209.493221, 334.61693)"><g><path d="M 2.578125 -2.75 L 7.21875 -3.296875 L 7.21875 -38.140625 L 2.859375 -38.859375 L 2.859375 -41.609375 L 10.1875 -41.609375 C 11.238281 -41.609375 12.660156 -41.679688 14.453125 -41.828125 C 16.316406 -41.984375 17.769531 -42.0625 18.8125 -42.0625 C 24.300781 -42.0625 28.210938 -41.171875 30.546875 -39.390625 C 32.878906 -37.617188 34.046875 -34.832031 34.046875 -31.03125 C 34.046875 -28.375 33.304688 -25.941406 31.828125 -23.734375 C 30.359375 -21.535156 28.335938 -20.046875 25.765625 -19.265625 C 26.953125 -18.628906 28.054688 -17.535156 29.078125 -15.984375 C 30.109375 -14.429688 31.375 -12.273438 32.875 -9.515625 C 34.03125 -7.429688 34.914062 -5.898438 35.53125 -4.921875 C 36.144531 -3.953125 36.734375 -3.410156 37.296875 -3.296875 L 39.484375 -2.75 L 39.484375 0 L 31.75 0 C 31.15625 0 30.484375 -0.640625 29.734375 -1.921875 C 28.984375 -3.210938 27.992188 -5.203125 26.765625 -7.890625 C 25.421875 -10.835938 24.253906 -13.179688 23.265625 -14.921875 C 22.273438 -16.660156 21.296875 -17.769531 20.328125 -18.25 C 16.335938 -18.25 13.96875 -18.269531 13.21875 -18.3125 L 13.21875 -3.296875 L 18.765625 -2.75 L 18.765625 0 L 2.578125 0 Z M 19.875 -21.28125 C 22.269531 -21.28125 24.15625 -22.0625 25.53125 -23.625 C 26.914062 -25.195312 27.609375 -27.53125 27.609375 -30.625 C 27.609375 -33.351562 26.90625 -35.4375 25.5 -36.875 C 24.101562 -38.3125 21.6875 -39.03125 18.25 -39.03125 C 17.0625 -39.03125 15.867188 -38.957031 14.671875 -38.8125 C 13.921875 -38.738281 13.4375 -38.703125 13.21875 -38.703125 L 13.21875 -21.34375 C 13.78125 -21.300781 14.9375 -21.28125 16.6875 -21.28125 Z M 19.875 -21.28125 "/></g></g></g><g fill="#000000" fill-opacity="0.4"><g transform="translate(248.911729, 334.61693)"><g><path d="M 6.4375 -25.09375 L 6.4375 -25.703125 C 6.882812 -26.078125 7.425781 -26.90625 8.0625 -28.1875 C 8.695312 -29.476562 9.238281 -30.972656 9.6875 -32.671875 C 10.132812 -34.367188 10.359375 -36.039062 10.359375 -37.6875 C 10.359375 -38.09375 10.234375 -38.460938 9.984375 -38.796875 C 9.742188 -39.140625 9.347656 -39.59375 8.796875 -40.15625 C 8.117188 -40.789062 7.59375 -41.378906 7.21875 -41.921875 C 6.84375 -42.460938 6.65625 -43.101562 6.65625 -43.84375 C 6.65625 -44.8125 6.925781 -45.578125 7.46875 -46.140625 C 8.007812 -46.703125 8.726562 -46.984375 9.625 -46.984375 C 10.601562 -46.984375 11.519531 -46.628906 12.375 -45.921875 C 13.226562 -45.210938 13.90625 -44.234375 14.40625 -42.984375 C 14.914062 -41.734375 15.171875 -40.320312 15.171875 -38.75 C 15.171875 -36.476562 14.769531 -34.265625 13.96875 -32.109375 C 13.164062 -29.960938 12.203125 -28.125 11.078125 -26.59375 C 9.960938 -25.0625 8.941406 -24.054688 8.015625 -23.578125 Z M 6.4375 -25.09375 "/></g></g></g><g fill="#000000" fill-opacity="0.4"><g transform="translate(270.244751, 334.61693)"><g><path d="M 21.34375 0.453125 C 15.851562 0.453125 11.804688 -1.007812 9.203125 -3.9375 C 6.609375 -6.875 5.3125 -11.421875 5.3125 -17.578125 L 5.3125 -38.140625 L 1.34375 -38.8125 L 1.34375 -41.609375 L 16.296875 -41.609375 L 16.296875 -38.8125 L 11.53125 -38.078125 L 11.53125 -16.96875 C 11.53125 -11.894531 12.4375 -8.234375 14.25 -5.984375 C 16.0625 -3.742188 18.664062 -2.625 22.0625 -2.625 C 25.457031 -2.625 28.003906 -3.816406 29.703125 -6.203125 C 31.398438 -8.597656 32.25 -12.070312 32.25 -16.625 L 32.25 -38.078125 L 27.546875 -38.8125 L 27.546875 -41.609375 L 40.59375 -41.609375 L 40.59375 -38.8125 L 36.515625 -38.140625 L 36.515625 -16.90625 C 36.515625 -11.082031 35.128906 -6.734375 32.359375 -3.859375 C 29.597656 -0.984375 25.925781 0.453125 21.34375 0.453125 Z M 21.34375 0.453125 "/></g></g></g><g fill="#000000" fill-opacity="0.4"><g transform="translate(311.678952, 334.61693)"><g><path d="M 7.734375 -4.484375 C 8.097656 -3.921875 8.882812 -3.414062 10.09375 -2.96875 C 11.3125 -2.519531 12.59375 -2.296875 13.9375 -2.296875 C 16.070312 -2.296875 17.640625 -2.707031 18.640625 -3.53125 C 19.648438 -4.351562 20.15625 -5.488281 20.15625 -6.9375 C 20.15625 -7.945312 19.835938 -8.828125 19.203125 -9.578125 C 18.566406 -10.328125 17.679688 -10.988281 16.546875 -11.5625 C 15.410156 -12.144531 13.773438 -12.84375 11.640625 -13.65625 C 8.773438 -14.738281 6.675781 -16.035156 5.34375 -17.546875 C 4.019531 -19.066406 3.359375 -21.054688 3.359375 -23.515625 C 3.359375 -25.160156 3.851562 -26.597656 4.84375 -27.828125 C 5.832031 -29.066406 7.191406 -30.03125 8.921875 -30.71875 C 10.660156 -31.40625 12.597656 -31.75 14.734375 -31.75 C 16.441406 -31.75 17.941406 -31.617188 19.234375 -31.359375 C 20.523438 -31.097656 21.5625 -30.835938 22.34375 -30.578125 C 23.125 -30.316406 23.644531 -30.148438 23.90625 -30.078125 L 23.90625 -23.125 L 20.5 -23.125 L 19.375 -27.265625 C 19.15625 -27.710938 18.554688 -28.09375 17.578125 -28.40625 C 16.609375 -28.726562 15.53125 -28.890625 14.34375 -28.890625 C 12.65625 -28.890625 11.296875 -28.515625 10.265625 -27.765625 C 9.242188 -27.023438 8.734375 -26.019531 8.734375 -24.75 C 8.734375 -23.632812 9.003906 -22.710938 9.546875 -21.984375 C 10.085938 -21.253906 10.769531 -20.664062 11.59375 -20.21875 C 12.414062 -19.769531 13.535156 -19.242188 14.953125 -18.640625 L 16.078125 -18.203125 C 18.160156 -17.378906 19.851562 -16.59375 21.15625 -15.84375 C 22.46875 -15.101562 23.5625 -14.125 24.4375 -12.90625 C 25.320312 -11.695312 25.765625 -10.210938 25.765625 -8.453125 C 25.765625 -5.691406 24.6875 -3.488281 22.53125 -1.84375 C 20.382812 -0.207031 17.445312 0.609375 13.71875 0.609375 C 11.882812 0.609375 9.96875 0.359375 7.96875 -0.140625 C 5.976562 -0.640625 4.347656 -1.15625 3.078125 -1.6875 L 3.078125 -8.84375 L 6.71875 -8.84375 Z M 7.734375 -4.484375 "/></g></g></g><g fill="#0b1e45" fill-opacity="1"><g transform="translate(35.234369, 332.142108)"><g><path d="M 7.28125 -38.140625 L 2.796875 -38.8125 L 2.796875 -41.609375 L 13.21875 -41.609375 L 31.859375 -14.28125 L 35 -8.34375 L 35 -38.140625 L 30.125 -38.8125 L 30.125 -41.609375 L 43.34375 -41.609375 L 43.34375 -38.8125 L 38.859375 -38.140625 L 38.859375 0 L 34.4375 0 L 15.40625 -27.9375 L 11.09375 -35.34375 L 11.09375 -3.296875 L 16.40625 -2.75 L 16.40625 0 L 2.796875 0 L 2.796875 -2.75 L 7.28125 -3.359375 Z M 7.28125 -38.140625 "/></g></g></g><g fill="#0b1e45" fill-opacity="1"><g transform="translate(79.972124, 332.142108)"><g><path d="M 16.296875 0.609375 C 11.773438 0.609375 8.328125 -0.863281 5.953125 -3.8125 C 3.585938 -6.757812 2.40625 -10.695312 2.40625 -15.625 C 2.40625 -18.875 3.019531 -21.726562 4.25 -24.1875 C 5.488281 -26.65625 7.21875 -28.5625 9.4375 -29.90625 C 11.65625 -31.25 14.1875 -31.921875 17.03125 -31.921875 C 20.5 -31.921875 23.191406 -30.957031 25.109375 -29.03125 C 27.035156 -27.113281 28.054688 -24.363281 28.171875 -20.78125 C 28.171875 -18.5 28.039062 -16.757812 27.78125 -15.5625 L 8.515625 -15.5625 C 8.585938 -11.875 9.441406 -8.898438 11.078125 -6.640625 C 12.722656 -4.378906 15.0625 -3.25 18.09375 -3.25 C 19.582031 -3.25 21.140625 -3.519531 22.765625 -4.0625 C 24.390625 -4.601562 25.648438 -5.242188 26.546875 -5.984375 L 27.609375 -3.53125 C 26.523438 -2.40625 24.914062 -1.429688 22.78125 -0.609375 C 20.65625 0.203125 18.492188 0.609375 16.296875 0.609375 Z M 22.015625 -18.53125 C 22.117188 -19.320312 22.171875 -20.125 22.171875 -20.9375 C 22.140625 -23.363281 21.628906 -25.273438 20.640625 -26.671875 C 19.648438 -28.078125 18.085938 -28.78125 15.953125 -28.78125 C 13.796875 -28.78125 12.070312 -27.992188 10.78125 -26.421875 C 9.488281 -24.859375 8.75 -22.226562 8.5625 -18.53125 Z M 22.015625 -18.53125 "/></g></g></g><g fill="#0b1e45" fill-opacity="1"><g transform="translate(110.431878, 332.142108)"><g><path d="M -0.390625 -31.078125 L 12.65625 -31.078125 L 12.65625 -28.453125 L 8.40625 -27.78125 L 13.046875 -11.3125 L 14.671875 -4.203125 L 16.296875 -11.375 L 21.671875 -31.078125 L 27.15625 -31.078125 L 32.703125 -11.375 L 34.328125 -4.140625 L 36.125 -11.3125 L 40.65625 -27.71875 L 36.40625 -28.453125 L 36.40625 -31.078125 L 47.765625 -31.078125 L 47.765625 -28.453125 L 44.796875 -27.71875 L 36.125 0.453125 L 30.859375 0.453125 L 24.921875 -19.3125 L 23.46875 -26.265625 L 22.28125 -19.3125 L 16.625 0.453125 L 11.421875 0.453125 L 2.46875 -27.78125 L -0.390625 -28.453125 Z M -0.390625 -31.078125 "/></g></g></g><g fill="#0b1e45" fill-opacity="1"><g transform="translate(157.409322, 332.142108)"><g><path d="M 7.734375 -4.484375 C 8.097656 -3.921875 8.882812 -3.414062 10.09375 -2.96875 C 11.3125 -2.519531 12.59375 -2.296875 13.9375 -2.296875 C 16.070312 -2.296875 17.640625 -2.707031 18.640625 -3.53125 C 19.648438 -4.351562 20.15625 -5.488281 20.15625 -6.9375 C 20.15625 -7.945312 19.835938 -8.828125 19.203125 -9.578125 C 18.566406 -10.328125 17.679688 -10.988281 16.546875 -11.5625 C 15.410156 -12.144531 13.773438 -12.84375 11.640625 -13.65625 C 8.773438 -14.738281 6.675781 -16.035156 5.34375 -17.546875 C 4.019531 -19.066406 3.359375 -21.054688 3.359375 -23.515625 C 3.359375 -25.160156 3.851562 -26.597656 4.84375 -27.828125 C 5.832031 -29.066406 7.191406 -30.03125 8.921875 -30.71875 C 10.660156 -31.40625 12.597656 -31.75 14.734375 -31.75 C 16.441406 -31.75 17.941406 -31.617188 19.234375 -31.359375 C 20.523438 -31.097656 21.5625 -30.835938 22.34375 -30.578125 C 23.125 -30.316406 23.644531 -30.148438 23.90625 -30.078125 L 23.90625 -23.125 L 20.5 -23.125 L 19.375 -27.265625 C 19.15625 -27.710938 18.554688 -28.09375 17.578125 -28.40625 C 16.609375 -28.726562 15.53125 -28.890625 14.34375 -28.890625 C 12.65625 -28.890625 11.296875 -28.515625 10.265625 -27.765625 C 9.242188 -27.023438 8.734375 -26.019531 8.734375 -24.75 C 8.734375 -23.632812 9.003906 -22.710938 9.546875 -21.984375 C 10.085938 -21.253906 10.769531 -20.664062 11.59375 -20.21875 C 12.414062 -19.769531 13.535156 -19.242188 14.953125 -18.640625 L 16.078125 -18.203125 C 18.160156 -17.378906 19.851562 -16.59375 21.15625 -15.84375 C 22.46875 -15.101562 23.5625 -14.125 24.4375 -12.90625 C 25.320312 -11.695312 25.765625 -10.210938 25.765625 -8.453125 C 25.765625 -5.691406 24.6875 -3.488281 22.53125 -1.84375 C 20.382812 -0.207031 17.445312 0.609375 13.71875 0.609375 C 11.882812 0.609375 9.96875 0.359375 7.96875 -0.140625 C 5.976562 -0.640625 4.347656 -1.15625 3.078125 -1.6875 L 3.078125 -8.84375 L 6.71875 -8.84375 Z M 7.734375 -4.484375 "/></g></g></g><g fill="#0b1e45" fill-opacity="1"><g transform="translate(185.685371, 332.142108)"><g><path d="M 6.4375 -25.09375 L 6.4375 -25.703125 C 6.882812 -26.078125 7.425781 -26.90625 8.0625 -28.1875 C 8.695312 -29.476562 9.238281 -30.972656 9.6875 -32.671875 C 10.132812 -34.367188 10.359375 -36.039062 10.359375 -37.6875 C 10.359375 -38.09375 10.234375 -38.460938 9.984375 -38.796875 C 9.742188 -39.140625 9.347656 -39.59375 8.796875 -40.15625 C 8.117188 -40.789062 7.59375 -41.378906 7.21875 -41.921875 C 6.84375 -42.460938 6.65625 -43.101562 6.65625 -43.84375 C 6.65625 -44.8125 6.925781 -45.578125 7.46875 -46.140625 C 8.007812 -46.703125 8.726562 -46.984375 9.625 -46.984375 C 10.601562 -46.984375 11.519531 -46.628906 12.375 -45.921875 C 13.226562 -45.210938 13.90625 -44.234375 14.40625 -42.984375 C 14.914062 -41.734375 15.171875 -40.320312 15.171875 -38.75 C 15.171875 -36.476562 14.769531 -34.265625 13.96875 -32.109375 C 13.164062 -29.960938 12.203125 -28.125 11.078125 -26.59375 C 9.960938 -25.0625 8.941406 -24.054688 8.015625 -23.578125 Z M 6.4375 -25.09375 "/></g></g></g><g fill="#0b1e45" fill-opacity="1"><g transform="translate(207.018393, 332.142108)"><g><path d="M 2.578125 -2.75 L 7.21875 -3.296875 L 7.21875 -38.140625 L 2.859375 -38.859375 L 2.859375 -41.609375 L 10.1875 -41.609375 C 11.238281 -41.609375 12.660156 -41.679688 14.453125 -41.828125 C 16.316406 -41.984375 17.769531 -42.0625 18.8125 -42.0625 C 24.300781 -42.0625 28.210938 -41.171875 30.546875 -39.390625 C 32.878906 -37.617188 34.046875 -34.832031 34.046875 -31.03125 C 34.046875 -28.375 33.304688 -25.941406 31.828125 -23.734375 C 30.359375 -21.535156 28.335938 -20.046875 25.765625 -19.265625 C 26.953125 -18.628906 28.054688 -17.535156 29.078125 -15.984375 C 30.109375 -14.429688 31.375 -12.273438 32.875 -9.515625 C 34.03125 -7.429688 34.914062 -5.898438 35.53125 -4.921875 C 36.144531 -3.953125 36.734375 -3.410156 37.296875 -3.296875 L 39.484375 -2.75 L 39.484375 0 L 31.75 0 C 31.15625 0 30.484375 -0.640625 29.734375 -1.921875 C 28.984375 -3.210938 27.992188 -5.203125 26.765625 -7.890625 C 25.421875 -10.835938 24.253906 -13.179688 23.265625 -14.921875 C 22.273438 -16.660156 21.296875 -17.769531 20.328125 -18.25 C 16.335938 -18.25 13.96875 -18.269531 13.21875 -18.3125 L 13.21875 -3.296875 L 18.765625 -2.75 L 18.765625 0 L 2.578125 0 Z M 19.875 -21.28125 C 22.269531 -21.28125 24.15625 -22.0625 25.53125 -23.625 C 26.914062 -25.195312 27.609375 -27.53125 27.609375 -30.625 C 27.609375 -33.351562 26.90625 -35.4375 25.5 -36.875 C 24.101562 -38.3125 21.6875 -39.03125 18.25 -39.03125 C 17.0625 -39.03125 15.867188 -38.957031 14.671875 -38.8125 C 13.921875 -38.738281 13.4375 -38.703125 13.21875 -38.703125 L 13.21875 -21.34375 C 13.78125 -21.300781 14.9375 -21.28125 16.6875 -21.28125 Z M 19.875 -21.28125 "/></g></g></g><g fill="#0b1e45" fill-opacity="1"><g transform="translate(246.436901, 332.142108)"><g><path d="M 6.4375 -25.09375 L 6.4375 -25.703125 C 6.882812 -26.078125 7.425781 -26.90625 8.0625 -28.1875 C 8.695312 -29.476562 9.238281 -30.972656 9.6875 -32.671875 C 10.132812 -34.367188 10.359375 -36.039062 10.359375 -37.6875 C 10.359375 -38.09375 10.234375 -38.460938 9.984375 -38.796875 C 9.742188 -39.140625 9.347656 -39.59375 8.796875 -40.15625 C 8.117188 -40.789062 7.59375 -41.378906 7.21875 -41.921875 C 6.84375 -42.460938 6.65625 -43.101562 6.65625 -43.84375 C 6.65625 -44.8125 6.925781 -45.578125 7.46875 -46.140625 C 8.007812 -46.703125 8.726562 -46.984375 9.625 -46.984375 C 10.601562 -46.984375 11.519531 -46.628906 12.375 -45.921875 C 13.226562 -45.210938 13.90625 -44.234375 14.40625 -42.984375 C 14.914062 -41.734375 15.171875 -40.320312 15.171875 -38.75 C 15.171875 -36.476562 14.769531 -34.265625 13.96875 -32.109375 C 13.164062 -29.960938 12.203125 -28.125 11.078125 -26.59375 C 9.960938 -25.0625 8.941406 -24.054688 8.015625 -23.578125 Z M 6.4375 -25.09375 "/></g></g></g><g fill="#0b1e45" fill-opacity="1"><g transform="translate(267.769923, 332.142108)"><g><path d="M 21.34375 0.453125 C 15.851562 0.453125 11.804688 -1.007812 9.203125 -3.9375 C 6.609375 -6.875 5.3125 -11.421875 5.3125 -17.578125 L 5.3125 -38.140625 L 1.34375 -38.8125 L 1.34375 -41.609375 L 16.296875 -41.609375 L 16.296875 -38.8125 L 11.53125 -38.078125 L 11.53125 -16.96875 C 11.53125 -11.894531 12.4375 -8.234375 14.25 -5.984375 C 16.0625 -3.742188 18.664062 -2.625 22.0625 -2.625 C 25.457031 -2.625 28.003906 -3.816406 29.703125 -6.203125 C 31.398438 -8.597656 32.25 -12.070312 32.25 -16.625 L 32.25 -38.078125 L 27.546875 -38.8125 L 27.546875 -41.609375 L 40.59375 -41.609375 L 40.59375 -38.8125 L 36.515625 -38.140625 L 36.515625 -16.90625 C 36.515625 -11.082031 35.128906 -6.734375 32.359375 -3.859375 C 29.597656 -0.984375 25.925781 0.453125 21.34375 0.453125 Z M 21.34375 0.453125 "/></g></g></g><g fill="#0b1e45" fill-opacity="1"><g transform="translate(309.204124, 332.142108)"><g><path d="M 7.734375 -4.484375 C 8.097656 -3.921875 8.882812 -3.414062 10.09375 -2.96875 C 11.3125 -2.519531 12.59375 -2.296875 13.9375 -2.296875 C 16.070312 -2.296875 17.640625 -2.707031 18.640625 -3.53125 C 19.648438 -4.351562 20.15625 -5.488281 20.15625 -6.9375 C 20.15625 -7.945312 19.835938 -8.828125 19.203125 -9.578125 C 18.566406 -10.328125 17.679688 -10.988281 16.546875 -11.5625 C 15.410156 -12.144531 13.773438 -12.84375 11.640625 -13.65625 C 8.773438 -14.738281 6.675781 -16.035156 5.34375 -17.546875 C 4.019531 -19.066406 3.359375 -21.054688 3.359375 -23.515625 C 3.359375 -25.160156 3.851562 -26.597656 4.84375 -27.828125 C 5.832031 -29.066406 7.191406 -30.03125 8.921875 -30.71875 C 10.660156 -31.40625 12.597656 -31.75 14.734375 -31.75 C 16.441406 -31.75 17.941406 -31.617188 19.234375 -31.359375 C 20.523438 -31.097656 21.5625 -30.835938 22.34375 -30.578125 C 23.125 -30.316406 23.644531 -30.148438 23.90625 -30.078125 L 23.90625 -23.125 L 20.5 -23.125 L 19.375 -27.265625 C 19.15625 -27.710938 18.554688 -28.09375 17.578125 -28.40625 C 16.609375 -28.726562 15.53125 -28.890625 14.34375 -28.890625 C 12.65625 -28.890625 11.296875 -28.515625 10.265625 -27.765625 C 9.242188 -27.023438 8.734375 -26.019531 8.734375 -24.75 C 8.734375 -23.632812 9.003906 -22.710938 9.546875 -21.984375 C 10.085938 -21.253906 10.769531 -20.664062 11.59375 -20.21875 C 12.414062 -19.769531 13.535156 -19.242188 14.953125 -18.640625 L 16.078125 -18.203125 C 18.160156 -17.378906 19.851562 -16.59375 21.15625 -15.84375 C 22.46875 -15.101562 23.5625 -14.125 24.4375 -12.90625 C 25.320312 -11.695312 25.765625 -10.210938 25.765625 -8.453125 C 25.765625 -5.691406 24.6875 -3.488281 22.53125 -1.84375 C 20.382812 -0.207031 17.445312 0.609375 13.71875 0.609375 C 11.882812 0.609375 9.96875 0.359375 7.96875 -0.140625 C 5.976562 -0.640625 4.347656 -1.15625 3.078125 -1.6875 L 3.078125 -8.84375 L 6.71875 -8.84375 Z M 7.734375 -4.484375 "/></g></g></g></svg>